<svg version="1.1" viewBox="0.0 0.0 352.1732283464567 352.76115485564304" fill="none" stroke="none" stroke-linecap="square" stroke-miterlimit="10" xmlns:xlink="http://www.w3.org/1999/xlink" xmlns="http://www.w3.org/2000/svg"><clipPath id="p.0"><path d="m0 0l352.17322 0l0 352.76117l-352.17322 0l0 -352.76117z" clip-rule="nonzero"/></clipPath><g clip-path="url(#p.0)"><path fill="#000000" fill-opacity="0.0" d="m0 0l352.17322 0l0 352.76117l-352.17322 0z" fill-rule="evenodd"/><path fill="#000000" d="m0 1.1820877l352.15747 0l0 352.15747l-352.15747 0z" fill-rule="evenodd"/><path stroke="#000000" stroke-width="1.0" stroke-linejoin="round" stroke-linecap="butt" d="m0 1.1820877l352.15747 0l0 352.15747l-352.15747 0z" fill-rule="evenodd"/><path fill="#ff0000" d="m0 1.1820877l352.15747 0l0 106.3307l-352.15747 0z" fill-rule="evenodd"/><path stroke="#000000" stroke-width="1.0" stroke-linejoin="round" stroke-linecap="butt" d="m0 1.1820877l352.15747 0l0 106.3307l-352.15747 0z" fill-rule="evenodd"/><path fill="#ff0000" d="m0 247.00887l352.15747 0l0 106.3307l-352.15747 0z" fill-rule="evenodd"/><path stroke="#000000" stroke-width="1.0" stroke-linejoin="round" stroke-linecap="butt" d="m0 247.00887l352.15747 0l0 106.3307l-352.15747 0z" fill-rule="evenodd"/><path fill="#000000" fill-opacity="0.0" d="m28.356941 88.99836l344.31497 0l0 185.66931l-344.31497 0z" fill-rule="evenodd"/><path fill="#ffffff" d="m58.60694 222.92525q-8.0625 0 -12.734375 -4.796875q-4.671875 -4.796875 -4.671875 -12.21875q0 -11.265625 10.484375 -17.09375q10.5 -5.828125 25.21875 -6.46875l0 -6.65625q0 -11.640625 -8.703125 -11.640625q-5.625 0 -9.21875 3.578125q1.546875 1.796875 1.546875 4.859375q0 3.078125 -2.125 5.515625q-2.109375 2.421875 -6.203125 2.421875q-3.828125 0 -6.015625 -2.484375q-2.171875 -2.5 -2.171875 -6.21875q0 -4.984375 3.578125 -8.828125q3.59375 -3.84375 9.796875 -5.953125q6.203125 -2.109375 13.625 -2.109375q23.6875 0 23.6875 24.453125l-0.125 20.984375q0 6.140625 -0.515625 11.265625q4.21875 -0.390625 8.328125 -0.390625l0 9.734375l-24.203125 0q-0.25 -1.65625 -0.515625 -5.890625l-0.125 0q-7.796875 7.9375 -18.9375 7.9375zm8.0625 -12.546875q5.765625 0 10.109375 -4.609375l0 -14.328125q-7.546875 0.765625 -12.484375 3.84375q-4.921875 3.0625 -4.921875 8.3125q0 3.453125 2.109375 5.125q2.109375 1.65625 5.1875 1.65625zm109.564125 12.546875q-4.484375 0 -9.546875 -1.734375q-5.046875 -1.71875 -9.015625 -5.9375l-0.125 0l-3.703125 5.625l-7.6875 0l0 -72.3125q0 -7.4375 0.390625 -11.140625l-8.96875 0.375l0 -9.71875q8.0625 0 13.046875 -1.1562576q5.0 -1.15625 6.671875 -2.6875l6.90625 0l0 37.500008q7.8125 -6.90625 17.28125 -6.90625q7.6875 0 13.5 3.96875q5.828125 3.96875 9.09375 11.328125q3.265625 7.359375 3.265625 17.09375q0 10.359375 -3.78125 18.421875q-3.765625 8.0625 -10.8125 12.671875q-7.046875 4.609375 -16.515625 4.609375zm-2.171875 -9.34375q7.671875 0 11.0625 -6.90625q3.40625 -6.921875 3.40625 -17.546875q0 -9.46875 -3.40625 -16.125q-3.390625 -6.65625 -10.171875 -6.65625q-3.203125 0 -6.078125 1.484375q-2.875 1.46875 -4.671875 4.015625l0 29.828125q0 6.28125 2.875 9.09375q2.890625 2.8125 6.984375 2.8125zm102.78926 9.34375q-11.390625 0 -16.328125 -6.65625q-4.921875 -6.65625 -4.921875 -21.625l0 -14.71875q0 -5.390625 0.375 -11.140625l-8.953125 0.375l0 -9.71875q8.0625 0 13.046875 -1.15625q5.0 -1.15625 6.65625 -2.6875l7.046875 0l0 39.171875q0 8.453125 2.171875 12.421875q2.1875 3.953125 6.921875 3.953125q3.1875 0 6.578125 -1.78125q3.40625 -1.796875 5.703125 -4.359375l0 -25.078125q0 -6.015625 0.515625 -11.140625l-8.96875 0.375l0 -9.71875q8.0625 0 12.984375 -1.15625q4.9375 -1.15625 6.609375 -2.6875l7.03125 0l0 44.671875q0 6.140625 -0.5 11.265625q4.09375 -0.390625 8.3125 -0.390625l0 9.734375l-24.3125 0l-0.78125 -6.65625l-0.125 0q-4.734375 4.09375 -9.15625 6.40625q-4.40625 2.296875 -9.90625 2.296875z" fill-rule="nonzero"/><path fill="#000000" fill-opacity="0.0" d="m28.356945 -43.773293l229.35432 0l0 164.37796l-229.35432 0z" fill-rule="evenodd"/><path fill="#ffffff" d="m42.606945 79.79421q4.859375 0 6.203125 -2.6875q1.34375 -2.703125 1.34375 -8.71875l0 -21.5q0 -5.75 0.515625 -10.875l-8.953125 0.375l0 -9.71875q8.0625 0 13.046875 -1.15625q5.0 -1.15625 6.65625 -2.6875l6.281246 0q0 0.25 0.5 6.40625l0.265625 0q3.703125 -2.953125 9.140625 -5.0625q5.453125 -2.109375 9.28125 -2.109375q11.65625 0 16.640625 6.65625q5.0 6.65625 5.0 21.625l0 17.15625q0 6.140625 -0.515625 11.265625q4.21875 -0.390625 8.3125 -0.390625l0 9.734375l-33.53125 0l0 -8.3125q4.859375 0 6.265625 -2.6875q1.421875 -2.703125 1.421875 -8.71875l-0.140625 -18.171875q0 -8.453125 -2.375 -12.40625q-2.359375 -3.96875 -7.984375 -3.96875q-3.078125 0 -6.28125 1.34375q-3.1875 1.34375 -5.375 3.390625l0 28.921875q0 6.140625 -0.5 11.265625q4.09375 -0.390625 8.3125 -0.390625l0 9.734375l-33.531246 0l0 -8.3125zm146.4314 10.359375q-9.34375 0 -16.765625 -3.96875q-7.421875 -3.96875 -11.65625 -11.390625q-4.21875 -7.421875 -4.21875 -17.28125q0 -10.359375 4.34375 -18.421875q4.359375 -8.078125 11.71875 -12.546875q7.359375 -4.484375 16.1875 -4.484375q9.21875 0 16.515625 3.96875q7.296875 3.96875 11.515625 11.453125q4.234375 7.484375 4.234375 17.46875q0 10.625 -4.03125 18.5625q-4.03125 7.9375 -11.265625 12.296875q-7.234375 4.34375 -16.578125 4.34375zm0.25 -9.09375q7.046875 0 9.859375 -6.515625q2.8125 -6.53125 2.8125 -16.390625q0 -11.0 -3.203125 -19.0625q-3.1875 -8.078125 -10.109375 -8.078125q-7.03125 0 -10.234375 6.65625q-3.203125 6.65625 -3.203125 16.390625q0 11.140625 3.453125 19.078125q3.46875 7.921875 10.625 7.921875z" fill-rule="nonzero"/><path fill="#000000" fill-opacity="0.0" d="m28.356928 201.4708l344.31494 0l0 119.055115l-344.31494 0z" fill-rule="evenodd"/><path fill="#ffffff" d="m72.044426 335.39767q-5.5 0 -10.75 -1.40625q-5.25 -1.40625 -8.1875 -3.578125l-0.140625 0l0.390625 3.828125l-9.734375 0l-0.5 -22.015625l8.3125 0q0.640625 5.890625 6.203125 9.921875q5.578125 4.03125 13.640625 4.03125q3.578125 0 6.203125 -1.65625q2.625 -1.671875 2.625 -4.734375q0 -2.3125 -1.671875 -3.84375q-1.65625 -1.53125 -3.96875 -2.546875q-2.296875 -1.03125 -9.203125 -3.734375q-8.1875 -3.1875 -12.296875 -5.234375q-4.09375 -2.046875 -7.359375 -6.078125q-3.265625 -4.046875 -3.265625 -10.4375q0 -5.25 2.625 -9.921875q2.625 -4.671875 8.0625 -7.671875q5.453125 -3.015625 13.390625 -3.015625q3.703125 0 8.046875 1.15625q4.359375 1.140625 7.3125 3.1875l0.125 0l-0.125 -3.703125l9.71875 0l0 22.65625l-8.3125 0q-1.15625 -6.65625 -5.890625 -10.5q-4.734375 -3.84375 -11.65625 -3.84375q-3.578125 0 -6.015625 1.671875q-2.421875 1.65625 -2.421875 5.125q0 3.578125 2.8125 5.3125q2.8125 1.71875 9.46875 3.890625q0.765625 0.140625 3.328125 1.03125q10.890625 3.84375 16.703125 8.96875q5.828125 5.109375 5.828125 13.4375q0 6.390625 -3.265625 10.8125q-3.265625 4.40625 -8.578125 6.65625q-5.3125 2.234375 -11.453125 2.234375zm97.6659 0q-9.34375 0 -16.765625 -3.96875q-7.421875 -3.96875 -11.65625 -11.390625q-4.21875 -7.421875 -4.21875 -17.28125q0 -10.359375 4.34375 -18.421875q4.359375 -8.078125 11.71875 -12.546875q7.359375 -4.484375 16.1875 -4.484375q9.21875 0 16.515625 3.96875q7.296875 3.96875 11.515625 11.453125q4.234375 7.484375 4.234375 17.46875q0 10.625 -4.03125 18.5625q-4.03125 7.9375 -11.265625 12.296875q-7.234375 4.34375 -16.578125 4.34375zm0.25 -9.09375q7.046875 0 9.859375 -6.515625q2.8125 -6.53125 2.8125 -16.390625q0 -11.0 -3.203125 -19.0625q-3.1875 -8.078125 -10.109375 -8.078125q-7.03125 0 -10.234375 6.65625q-3.203125 6.65625 -3.203125 16.390625q0 11.140625 3.453125 19.078125q3.46875 7.921875 10.625 7.921875zm103.940125 9.09375q-5.5 0 -10.75 -1.40625q-5.25 -1.40625 -8.187485 -3.578125l-0.140625 0l0.390625 3.828125l-9.734375 0l-0.5 -22.015625l8.3125 0q0.640625 5.890625 6.2031097 9.921875q5.578125 4.03125 13.640625 4.03125q3.578125 0 6.203125 -1.65625q2.625 -1.671875 2.625 -4.734375q0 -2.3125 -1.671875 -3.84375q-1.65625 -1.53125 -3.96875 -2.546875q-2.296875 -1.03125 -9.203125 -3.734375q-8.1875 -3.1875 -12.29686 -5.234375q-4.09375 -2.046875 -7.359375 -6.078125q-3.265625 -4.046875 -3.265625 -10.4375q0 -5.25 2.625 -9.921875q2.625 -4.671875 8.0625 -7.671875q5.4531097 -3.015625 13.39061 -3.015625q3.703125 0 8.046875 1.15625q4.359375 1.140625 7.3125 3.1875l0.125 0l-0.125 -3.703125l9.71875 0l0 22.65625l-8.3125 0q-1.15625 -6.65625 -5.890625 -10.5q-4.734375 -3.84375 -11.65625 -3.84375q-3.578125 0 -6.015625 1.671875q-2.421875 1.65625 -2.421875 5.125q0 3.578125 2.8125 5.3125q2.8125 1.71875 9.46875 3.890625q0.765625 0.140625 3.328125 1.03125q10.890625 3.84375 16.703125 8.96875q5.828125 5.109375 5.828125 13.4375q0 6.390625 -3.265625 10.8125q-3.265625 4.40625 -8.578125 6.65625q-5.3125 2.234375 -11.453125 2.234375z" fill-rule="nonzero"/><path fill="#000000" fill-opacity="0.0" d="m248.27034 -36.240486l115.05513 0l0 164.37796l-115.05513 0z" fill-rule="evenodd"/><path fill="#ffffff" d="m284.41098 60.95202l-22.015625 0.125l0 -12.15625l22.015625 0.125l0 -22.906248l12.671875 0l0 22.906248l22.390625 0.125l0 11.78125l-22.390625 0l0 24.1875l-12.671875 0l0 -24.1875z" fill-rule="nonzero"/></g></svg>